<svg xmlns="http://www.w3.org/2000/svg" viewBox="0 0 247.89 199.79"><title>Hashdox_Logo_2</title><g id="Layer_2" data-name="Layer 2"><g id="Layer_1-2" data-name="Layer 1"><path d="M92.06,86.55l15-8.75,12.59,10.91,7.19-8-9.95-8.63V26.38H70.72V37.16h35.36v4L75.87,58.5a16.12,16.12,0,0,0-8.15,14,15.49,15.49,0,0,0,4.92,11.63A16.79,16.79,0,0,0,84,88.71,15.84,15.84,0,0,0,92.06,86.55Zm-13.55-14a5.21,5.21,0,0,1,2.76-4.68l24.81-14.26V65.94L86.66,77.2a5.26,5.26,0,0,1-2.76.72A5.52,5.52,0,0,1,78.51,72.53Z"/><path d="M175.73,83.34a17.89,17.89,0,0,0,7.18-15,13.32,13.32,0,0,0-1.39-6A11.77,11.77,0,0,0,178.23,58a14.37,14.37,0,0,0-5.17-3.16,34.25,34.25,0,0,0-6-2.11c-2-.55-4.27-1.13-6.76-1.6-4.86-1-8.46-2.18-10.7-3.6a6.49,6.49,0,0,1-.35-11.1,11.88,11.88,0,0,1,7.16-2c6.06,0,10.88,3.2,14.33,9.51l.29.53L180,38.1a.08.08,0,0,0,0-.1l-.17-.31a26,26,0,0,0-21.56-13.62c-6.69-.28-12.31,1.4-16.69,5a16.56,16.56,0,0,0-6.32,13.38c0,5.69,1.8,9.75,5.48,12.41,3.45,2.59,8.42,4.6,14.76,6,5.61,1.19,9.68,2.41,12.13,3.64,2.34,1,3.47,2.6,3.47,4.89A7.31,7.31,0,0,1,167.53,76a16.23,16.23,0,0,1-9,2.36,16.75,16.75,0,0,1-10.2-3.07,18,18,0,0,1-6.18-8.68l-.18-.51L131.2,70l.16.49A25.21,25.21,0,0,0,141.6,84a30.76,30.76,0,0,0,16.93,4.74C165.4,88.71,171.19,86.9,175.73,83.34Z"/><polygon points="205.93 26.37 205.93 0 195.14 0 195.14 86.31 205.93 86.31 205.93 50.35 205.93 37.13 237.12 37.13 237.12 86.31 247.89 86.31 247.89 37.13 247.89 26.38 247.89 26.37 205.93 26.37"/><polygon points="14.98 0 4.19 0 4.19 86.31 14.98 86.31 14.98 50.35 14.98 37.13 46.17 37.13 46.17 86.31 56.94 86.31 56.94 37.13 56.94 26.38 56.94 26.37 14.98 26.37 14.98 0"/><path d="M105.3,135.05a32.33,32.33,0,0,0-32.37,32.37,32.33,32.33,0,0,0,32.37,32.37,32.35,32.35,0,0,0,32.37-32.37,32.35,32.35,0,0,0-32.37-32.37ZM83.72,167.42a21.7,21.7,0,0,1,21.58-21.58,21.89,21.89,0,0,1,6,.84L93.41,185.41a22.62,22.62,0,0,1-3.34-2.77A20.93,20.93,0,0,1,83.72,167.42Zm36.8,15.22A20.9,20.9,0,0,1,105.3,189a22.75,22.75,0,0,1-3.91-.34L119,150.75c.54.46,1.06.94,1.57,1.45a21.39,21.39,0,0,1,0,30.44Z"/><path d="M46.27,144.76a19.9,19.9,0,0,0-7.67-6.23A23.56,23.56,0,0,0,27.69,136c-8.63,0-15.46,2.88-20.38,8.63S0,157.83,0,167.3l.12-.12c0,9.47,2.4,17,7.31,22.66s11.63,8.51,20.38,8.51a23.42,23.42,0,0,0,10.79-2.52,21.28,21.28,0,0,0,7.67-6.35v7.91H56.34V112.51H46.27Zm-4.19,38.48c-3.24,4.08-7.79,6.12-13.43,6.12s-10.19-2-13.55-6.12-4.91-9.47-4.91-15.94h.12c0-6.59,1.68-12,4.91-16.06a16.47,16.47,0,0,1,13.43-6.12c5.64,0,10.19,2,13.43,6.12S47,160.71,47,167.3,45.31,179.17,42.08,183.24Z"/><polygon points="183.88 166.22 201.38 137.93 190.72 137.93 175.73 162.63 173.57 162.63 158.59 137.93 147.92 137.93 165.42 166.22 165.42 167.66 146.48 197.39 157.39 197.39 173.57 171.26 175.73 171.26 191.91 197.39 202.82 197.39 183.88 167.66 183.88 166.22"/></g></g></svg>