<svg xmlns="http://www.w3.org/2000/svg" viewBox="0 0 862.29 862.29"><defs><style>.cls-1{fill:#1d1d1b;}.cls-2{fill:#f0f0f0;}</style></defs><title>Icon_2</title><g id="Layer_2" data-name="Layer 2"><g id="Layer_1-2" data-name="Layer 1"><rect class="cls-1" width="862.29" height="862.29" rx="227.65"/><path class="cls-2" d="M357.65,416.13l32.41-18.92,27.22,23.59,15.55-17.37-21.51-18.67V286H311.51v23.33H388v8.56l-65.33,37.59A34.84,34.84,0,0,0,305,385.8,33.48,33.48,0,0,0,315.66,411c7.26,6.48,15.55,9.85,24.63,9.85A34.2,34.2,0,0,0,357.65,416.13ZM328.36,385.8a11.24,11.24,0,0,1,6-10.11L388,344.84v26.7l-42,24.37a11.35,11.35,0,0,1-6,1.56A12,12,0,0,1,328.36,385.8Z"/><path class="cls-2" d="M538.6,409.18c10.31-7.87,15.53-18.77,15.53-32.4a29,29,0,0,0-3-12.88,25.35,25.35,0,0,0-7.12-9.62,31.32,31.32,0,0,0-11.17-6.84A75.24,75.24,0,0,0,520,342.87c-4.45-1.19-9.24-2.43-14.62-3.46-10.52-2.1-18.31-4.71-23.15-7.77s-7.13-6.94-7.13-11.72c0-5.56,2-9.45,6.38-12.29,4.15-2.92,9.06-4.28,15.47-4.28,13.1,0,23.53,6.92,31,20.56l.63,1.14,19.23-13.69a.17.17,0,0,0,0-.22l-.38-.69A56.22,56.22,0,0,0,500.8,281c-14.47-.62-26.63,3-36.1,10.77a35.78,35.78,0,0,0-13.65,28.93c0,12.3,3.87,21.08,11.83,26.85,7.47,5.6,18.21,9.94,31.93,12.9,12.13,2.58,20.93,5.21,26.24,7.86,5,2.17,7.49,5.62,7.49,10.58,0,6.39-2.57,11.22-7.67,14.37-5.21,3.39-11.76,5.1-19.47,5.1-8.67,0-16.09-2.23-22-6.64C473.21,387.13,468.84,381,466,373l-.39-1.1-23.31,8.45.35,1.06a54.59,54.59,0,0,0,22.16,29.18c10.6,6.79,22.91,10.24,36.6,10.24C516.25,420.79,528.78,416.88,538.6,409.18Z"/><polygon class="cls-2" points="603.92 285.98 603.92 228.96 580.58 228.96 580.58 415.61 603.92 415.61 603.92 337.84 603.92 309.26 671.37 309.26 671.37 415.61 694.65 415.61 694.65 309.26 694.65 285.99 694.65 285.98 603.92 285.98"/><polygon class="cls-2" points="190.97 228.96 167.64 228.96 167.64 415.61 190.97 415.61 190.97 337.84 190.97 309.26 258.42 309.26 258.42 415.61 281.71 415.61 281.71 309.26 281.71 285.99 281.71 285.98 190.97 285.98 190.97 228.96"/><path class="cls-2" d="M386.29,521c-19.44,0-35.77,6.74-49.51,20.48S316.3,571.56,316.3,591s6.74,35.78,20.48,49.52S366.85,661,386.29,661s35.78-6.74,49.52-20.48,20.47-30.07,20.47-49.52-6.74-35.77-20.47-49.51S405.73,521,386.29,521Zm-46.66,70a46.91,46.91,0,0,1,46.66-46.66,47.3,47.3,0,0,1,13.09,1.81l-38.8,83.77a49.81,49.81,0,0,1-7.21-6A45.28,45.28,0,0,1,339.63,591Zm79.58,32.93a45.25,45.25,0,0,1-32.92,13.74,48.73,48.73,0,0,1-8.45-.74l38-82c1.16,1,2.3,2,3.4,3.11a46.32,46.32,0,0,1,0,65.85Z"/><path class="cls-2" d="M258.65,542a43.12,43.12,0,0,0-16.59-13.48,51,51,0,0,0-23.59-5.45c-18.67,0-33.45,6.22-44.07,18.67-10.37,12.18-15.82,28.51-15.82,49l.26-.26c0,20.48,5.19,36.82,15.82,49,10.36,12.18,25.14,18.41,44.07,18.41a50.69,50.69,0,0,0,23.33-5.45,46.24,46.24,0,0,0,16.59-13.74v17.11h21.78V472.27H258.65Zm-9.07,83.21c-7,8.82-16.85,13.22-29,13.22-12.44,0-22-4.4-29.29-13.22-7-8.81-10.63-20.48-10.63-34.48h.26c0-14.25,3.63-25.92,10.63-34.73,7.25-8.82,16.85-13.23,29-13.23s22,4.41,29,13.23,10.63,20.48,10.63,34.73C260.21,604.74,256.58,616.41,249.58,625.22Z"/><polygon class="cls-2" points="556.23 588.41 594.08 527.24 571.01 527.24 538.61 580.64 533.94 580.64 501.54 527.24 478.46 527.24 516.31 588.41 516.31 591.53 475.35 655.81 498.94 655.81 533.94 599.3 538.61 599.3 573.6 655.81 597.19 655.81 556.23 591.53 556.23 588.41"/></g></g></svg>