<svg xmlns="http://www.w3.org/2000/svg" viewBox="0 0 47.51 65.2"><title>Retry_Icon</title><g id="Layer_2" data-name="Layer 2"><g id="Layer_1-2" data-name="Layer 1"><path d="M19.84,43.65l-2.25,3.19,7.64,5.37A19.76,19.76,0,0,1,6.49,22.92L3,21A23.76,23.76,0,0,0,23.75,56.27c.44,0,.89,0,1.34,0l-5.33,6.5,3,2.47L32.9,52.84Z"/><path d="M45.86,23.79a23.74,23.74,0,0,0-23.3-15l5.78-6.11L25.5,0l-11,11.6L26.89,21.7l2.47-3-7.19-5.88a19.76,19.76,0,0,1,17.06,32l3.13,2.49A23.86,23.86,0,0,0,45.86,23.79Z"/></g></g></svg>