<svg xmlns="http://www.w3.org/2000/svg" viewBox="0 0 44.12 45.6"><defs><style>.cls-1{fill:#fff;}</style></defs><title>Swarm_Icon</title><g id="Layer_2" data-name="Layer 2"><g id="Layer_1-2" data-name="Layer 1"><path class="cls-1" d="M42.59,24.6l-8.7-4.89v-3h0L38.59,14l1.53-.86V4.34l-1.53-.86L33.85.82,32.38,0,30.91.82l-4.7,2.64-.34.2-2.34-1.4L22,1.37l-1.51.85-8.88,5-1.53.86V19.78L1.53,24.6,0,25.46V38.92l1.53.86,8.89,5,1.47.82,1.47-.82,8.7-4.89,8.7,4.89,1.47.82,1.47-.82,8.89-5,1.53-.85V25.46ZM32.38,3.44,37.12,6.1v5.32l-4,2.23-.79-.45L28.4,11V5.68ZM22,4.84l2.69,1.6v6.71l1.53.86,4.68,2.63v2.9l-.13.07-8.7,4.89-8.7-4.89-.24-.14V9.82ZM11.89,42.16,3,37.17v-10l8.61-4.83h0l8.69,4.89V37.41Zm29.23-5-8.89,5-8.45-4.75V27.21l8.58-4.82.09-.05,8.67,4.88Z"/></g></g></svg>